<svg xmlns="http://www.w3.org/2000/svg" width="24" height="24" viewBox="0 0 24 24" fill="none" stroke="currentColor" stroke-width="2" stroke-linecap="round" stroke-linejoin="round" class="lucide lucide-brush-cleaning-icon lucide-brush-cleaning"><metadata><rdf:RDF xmlns:rdf="http://www.w3.org/1999/02/22-rdf-syntax-ns#" xmlns:dc="http://purl.org/dc/elements/1.1/"><rdf:Description><dc:creator>RealFaviconGenerator</dc:creator><dc:source>https://realfavicongenerator.net</dc:source></rdf:Description></rdf:RDF></metadata><path d="m16 22-1-4"></path><path d="M19 14a1 1 0 0 0 1-1v-1a2 2 0 0 0-2-2h-3a1 1 0 0 1-1-1V4a2 2 0 0 0-4 0v5a1 1 0 0 1-1 1H6a2 2 0 0 0-2 2v1a1 1 0 0 0 1 1"></path><path d="M19 14H5l-1.973 6.767A1 1 0 0 0 4 22h16a1 1 0 0 0 .973-1.233z"></path><path d="m8 22 1-4"></path><style>@media (prefers-color-scheme: light) { :root { filter: none; } }
@media (prefers-color-scheme: dark) { :root { filter: invert(100%); } }
</style></svg>
